<?xml version="1.0" encoding="UTF-8"?> <svg xmlns="http://www.w3.org/2000/svg" width="2580" height="1708" viewBox="0 0 2580 1708" fill="none"> <g clip-path="url(#clip0_1130_776)"> <path d="M2685.37 1730.63V1650.23H2733.52V1730.63H2685.37ZM2596.47 1701.17C2596.46 1681.01 2581.57 1664.11 2562.16 1661.45V1220.17H2605.46L2605.41 1220.36V1286.28C2605.41 1289.22 2607.8 1291.61 2610.74 1291.61C2613.68 1291.61 2616.07 1289.22 2616.07 1286.28V1220.36L2616.03 1220.17H2766.19V1528.51H2649.95C2647.93 1528.51 2646.08 1529.65 2645.18 1531.45L2616.07 1589.71V1314.72C2616.07 1311.77 2613.68 1309.39 2610.74 1309.39C2607.8 1309.39 2605.41 1311.77 2605.41 1314.72V1730.63H2583.49C2591.45 1723.29 2596.47 1712.81 2596.47 1701.17ZM2364.06 1730.63V1711.87H2379.5C2382.44 1711.87 2384.82 1709.48 2384.82 1706.54C2384.82 1703.6 2382.44 1701.21 2379.5 1701.21H2188.16C2185.21 1701.21 2182.83 1703.6 2182.83 1706.54C2182.83 1709.48 2185.21 1711.87 2188.16 1711.87H2204.3V1730.63H1908.8V1615.78C1908.8 1612.84 1906.42 1610.45 1903.48 1610.45C1900.53 1610.45 1898.15 1612.84 1898.15 1615.78V1730.63H1798.37V1587.85C1840 1585.09 1873.04 1550.42 1873.04 1508.08C1873.04 1463.94 1837.16 1428.04 1793.05 1428.04C1764.02 1428.04 1738.64 1443.64 1724.62 1466.84V862.946H1787.72V1009.38C1787.72 1012.33 1790.11 1014.71 1793.05 1014.71C1795.99 1014.71 1798.37 1012.33 1798.37 1009.38V862.946H1854.01C1856.95 862.946 1859.34 860.558 1859.34 857.617V699.765H1937.35V984.761C1937.35 985.614 1937.6 986.392 1937.95 987.107L1901.19 1004.56C1899.33 1005.45 1898.15 1007.32 1898.15 1009.38V1589.04C1898.15 1591.98 1900.53 1594.37 1903.48 1594.37C1906.42 1594.37 1908.8 1591.98 1908.8 1589.04V1046.73C1915.49 1042.89 1943.24 1028.47 2051.9 975.709C2054.55 974.425 2055.65 971.238 2054.36 968.59C2053.09 965.941 2049.9 964.844 2047.25 966.122C1959.95 1008.51 1923.8 1026.31 1908.8 1034.74V1012.74L2088.17 927.544L2106.77 937.306C2097.22 941.915 2081.26 949.625 2062.28 958.822C2059.63 960.106 2058.52 963.299 2059.8 965.941C2060.72 967.848 2062.63 968.952 2064.61 968.952C2065.38 968.952 2066.18 968.776 2066.92 968.419C2092 956.254 2111.87 946.678 2118.52 943.465L2275.23 1025.67V1437.28C2275.23 1440.22 2277.62 1442.6 2280.56 1442.6C2283.51 1442.6 2285.89 1440.22 2285.89 1437.28V896.132L2551.51 1012.86V1654.06C2543.33 1641.17 2528.95 1632.82 2513.25 1632.82C2492.91 1632.82 2475.48 1646.23 2469.84 1665.1C2464.41 1662.43 2458.47 1661.05 2452.3 1661.05C2430.19 1661.05 2412.2 1679.04 2412.2 1701.17C2412.2 1712.81 2417.23 1723.29 2425.18 1730.63H2364.06ZM2353.41 1711.87V1730.63H2214.95V1711.87H2353.41ZM220.851 1587.85C248.25 1586.04 271.891 1570.4 284.869 1547.82V1730.63H220.851V1587.85ZM183.701 1645.54C192.004 1635.52 196.533 1623.04 196.533 1609.86C196.533 1600.68 194.324 1591.85 190.193 1583.94C196.548 1586.07 203.252 1587.4 210.201 1587.85V1672.06L183.701 1645.54ZM140.508 1655.25C128.383 1655.25 116.99 1650.53 108.42 1641.96C99.85 1633.38 95.1281 1621.98 95.1311 1609.86C95.1281 1597.73 99.85 1586.33 108.42 1577.75C116.99 1569.17 128.383 1564.45 140.508 1564.45C152.627 1564.45 164.021 1569.17 172.591 1577.75C181.159 1586.33 185.883 1597.73 185.883 1609.86C185.883 1620.18 182.427 1629.97 176.116 1637.95L144.271 1606.09C142.192 1604.01 138.823 1604.01 136.743 1606.09C134.66 1608.17 134.66 1611.54 136.743 1613.62L168.584 1645.48C160.611 1651.8 150.83 1655.25 140.508 1655.25ZM215.527 1438.7C253.761 1438.7 284.869 1469.83 284.869 1508.08C284.869 1544.54 256.601 1574.46 220.851 1577.2V1508.08C220.851 1505.14 218.467 1502.75 215.527 1502.75C212.584 1502.75 210.201 1505.14 210.201 1508.08V1577.2C174.449 1574.46 146.181 1544.54 146.181 1508.08C146.181 1469.83 177.289 1438.7 215.527 1438.7ZM295.521 1485.4H441.673V1730.63H295.521V1485.4ZM1483.28 1711.87H1621.73V1730.63H1483.28V1711.87ZM1724.62 1665.49C1735.33 1664.24 1745.37 1659.98 1753.69 1653.08L1787.72 1687.13V1730.63H1724.62V1665.49ZM1672.65 1609.86C1672.65 1597.73 1677.37 1586.33 1685.94 1577.75C1694.51 1569.17 1705.91 1564.45 1718.03 1564.45C1730.15 1564.45 1741.54 1569.17 1750.11 1577.75C1758.68 1586.33 1763.4 1597.73 1763.4 1609.86C1763.4 1620.18 1759.95 1629.97 1753.64 1637.95L1721.79 1606.09C1719.71 1604.01 1716.34 1604.01 1714.26 1606.09C1712.18 1608.17 1712.18 1611.54 1714.26 1613.62L1746.1 1645.48C1738.13 1651.8 1728.35 1655.25 1718.03 1655.25C1705.91 1655.25 1694.51 1650.53 1685.94 1641.96C1677.37 1633.38 1672.65 1621.98 1672.65 1609.86ZM1793.05 1502.75C1790.11 1502.75 1787.72 1505.14 1787.72 1508.08V1577.2C1752.83 1574.53 1725.16 1545.96 1723.84 1510.7C1724.29 1509.91 1724.62 1509.05 1724.62 1508.08V1497.38C1729.79 1464.2 1758.46 1438.7 1793.05 1438.7C1831.28 1438.7 1862.39 1469.83 1862.39 1508.08C1862.39 1544.54 1834.12 1574.46 1798.37 1577.2V1508.08C1798.37 1505.14 1795.99 1502.75 1793.05 1502.75ZM1787.72 1672.06L1761.22 1645.54C1769.53 1635.52 1774.05 1623.04 1774.05 1609.86C1774.05 1600.68 1771.85 1591.85 1767.71 1583.94C1774.07 1586.07 1780.77 1587.4 1787.72 1587.85V1672.06ZM1798.37 432.62L1860.52 408.77V533.089C1860.52 536.031 1862.9 538.417 1865.84 538.417C1868.79 538.417 1871.17 536.031 1871.17 533.089V404.676L1937.35 379.277V689.109H1854.01C1851.06 689.109 1848.68 691.495 1848.68 694.436V852.288H1798.37V432.62ZM2019.49 699.765V947.738L2019.61 948.314L1948 982.326V699.765H2019.49ZM2030.14 538.417H2113.36L2098.11 730.602C2097.87 733.533 2100.06 736.1 2103 736.334L2103.42 736.351C2106.17 736.351 2108.5 734.235 2108.73 731.444L2124.05 538.417H2275.23V563.713H2203.09C2200.15 563.713 2197.76 566.099 2197.76 569.04C2197.76 571.987 2200.15 574.369 2203.09 574.369H2275.23V597.335H2203.09C2200.15 597.335 2197.76 599.722 2197.76 602.664C2197.76 605.605 2200.15 607.992 2203.09 607.992H2275.23V630.953H2203.09C2200.15 630.953 2197.76 633.34 2197.76 636.281C2197.76 639.228 2200.15 641.61 2203.09 641.61H2275.23V664.576H2188.16C2185.21 664.576 2182.83 666.963 2182.83 669.905C2182.83 672.846 2185.21 675.232 2188.16 675.232H2275.23V698.199H2188.16C2185.21 698.199 2182.83 700.581 2182.83 703.527C2182.83 706.468 2185.21 708.856 2188.16 708.856H2275.23V731.817H2173.22C2170.28 731.817 2167.9 734.203 2167.9 737.145C2167.9 740.086 2170.28 742.473 2173.22 742.473H2275.23V765.439H2173.22C2170.28 765.439 2167.9 767.827 2167.9 770.768C2167.9 773.709 2170.28 776.097 2173.22 776.097H2275.23V799.057H2152.69C2149.74 799.057 2147.36 801.444 2147.36 804.386C2147.36 807.333 2149.74 809.713 2152.69 809.713H2275.23V832.68H2152.69C2149.74 832.68 2147.36 835.068 2147.36 838.009C2147.36 840.95 2149.74 843.338 2152.69 843.338H2275.23V866.298H2125.62C2122.68 866.298 2120.3 868.684 2120.3 871.627C2120.3 874.574 2122.68 876.954 2125.62 876.954H2275.23V899.92H2125.62C2122.68 899.92 2120.3 902.302 2120.3 905.249C2120.3 908.19 2122.68 910.578 2125.62 910.578H2275.23V1013.64L2093.87 918.506L2105.57 771.135C2105.81 768.205 2103.62 765.637 2100.69 765.401C2097.69 765.195 2095.19 767.363 2094.95 770.294L2083.22 918.102L2030.14 943.311V538.417ZM2130.7 454.749L2275.23 380.261V527.761H2124.9L2130.7 454.749ZM2556.37 1730.63H2452.3C2436.07 1730.63 2422.85 1717.41 2422.85 1701.17C2422.85 1684.92 2436.07 1671.71 2452.3 1671.71C2458.84 1671.71 2465.05 1673.84 2470.25 1677.86C2471.77 1679.03 2473.82 1679.29 2475.58 1678.55C2477.36 1677.8 2478.59 1676.15 2478.8 1674.24C2480.78 1656.7 2495.59 1643.48 2513.24 1643.48C2528.46 1643.48 2542.13 1653.67 2546.47 1668.27C2547.22 1670.79 2549.69 1672.42 2552.31 1672.02C2553.64 1671.84 2554.99 1671.71 2556.37 1671.71C2572.6 1671.71 2585.81 1684.92 2585.81 1701.17C2585.81 1717.41 2572.6 1730.63 2556.37 1730.63ZM2931.66 1582.78H2866.44C2863.5 1582.78 2861.12 1585.16 2861.12 1588.11C2861.12 1591.06 2863.5 1593.44 2866.44 1593.44H2936.98L2943.73 1606.95H2619.36L2626.11 1593.44H2841.14C2844.09 1593.44 2846.47 1591.06 2846.47 1588.11C2846.47 1585.16 2844.09 1582.78 2841.14 1582.78H2631.44L2653.24 1539.16H2909.86L2931.66 1582.78ZM2616.06 1617.61H2648.82V1730.63H2616.06V1617.61ZM2903.63 1730.63H2744.17V1644.9C2744.17 1641.96 2741.79 1639.57 2738.84 1639.57H2680.04C2677.1 1639.57 2674.72 1641.96 2674.72 1644.9V1730.63H2659.47V1617.61H2903.63V1730.63ZM2993.38 1276.2H3167.54V1474.74H3109.39C3106.45 1474.74 3104.06 1477.12 3104.06 1480.07V1612.28C3104.06 1615.23 3106.45 1617.61 3109.39 1617.61C3112.33 1617.61 3114.71 1615.23 3114.71 1612.28V1485.4H3260.88V1730.63H3114.71V1641.09C3114.71 1638.15 3112.33 1635.76 3109.39 1635.76C3106.45 1635.76 3104.06 1638.15 3104.06 1641.09V1730.63H2993.38V1276.2ZM3340.87 1438.7C3379.1 1438.7 3410.22 1469.83 3410.22 1508.08C3410.22 1544.54 3381.94 1574.46 3346.19 1577.2V1508.08C3346.19 1505.14 3343.81 1502.75 3340.87 1502.75C3337.92 1502.75 3335.54 1505.14 3335.54 1508.08V1577.2C3299.79 1574.46 3271.53 1544.54 3271.53 1508.08C3271.53 1469.83 3302.63 1438.7 3340.87 1438.7ZM3447.97 1577.75C3465.67 1595.45 3465.67 1624.25 3447.97 1641.96C3439.4 1650.53 3428.01 1655.25 3415.89 1655.25C3405.56 1655.25 3395.78 1651.8 3387.81 1645.48L3419.65 1613.62C3421.73 1611.54 3421.73 1608.17 3419.65 1606.09C3417.57 1604.01 3414.2 1604.01 3412.12 1606.09L3380.28 1637.95C3373.96 1629.97 3370.51 1620.18 3370.51 1609.86C3370.51 1597.73 3375.23 1586.33 3383.81 1577.75C3392.38 1569.17 3403.77 1564.45 3415.89 1564.45C3428.01 1564.45 3439.4 1569.17 3447.97 1577.75ZM3346.19 1587.85C3353.14 1587.4 3359.85 1586.07 3366.2 1583.94C3362.07 1591.85 3359.86 1600.68 3359.86 1609.86C3359.86 1623.04 3364.39 1635.52 3372.69 1645.54L3346.19 1672.06V1587.85ZM3335.54 1730.63H3271.53V1547.82C3284.51 1570.4 3308.14 1586.04 3335.54 1587.85V1730.63ZM1472.62 642.771V899.92H1374.52L1472.62 642.771ZM3521.2 1157.4C3521.2 1147.21 3529.49 1138.92 3539.68 1138.92C3549.87 1138.92 3558.15 1147.21 3558.15 1157.4C3558.15 1167.6 3549.87 1175.89 3539.68 1175.89C3529.49 1175.89 3521.2 1167.6 3521.2 1157.4ZM3621.33 1730.63H3545V1186.04C3558.53 1183.52 3568.8 1171.65 3568.8 1157.4C3568.8 1141.34 3555.74 1128.26 3539.68 1128.26C3523.62 1128.26 3510.55 1141.34 3510.55 1157.4C3510.55 1171.65 3520.83 1183.52 3534.35 1186.04V1298.85C3511.18 1238.48 3452.67 1195.5 3384.27 1195.5H3304.47C3301.52 1195.5 3299.14 1197.89 3299.14 1200.83C3299.14 1203.77 3301.52 1206.16 3304.47 1206.16H3384.27C3467.03 1206.16 3534.35 1273.53 3534.35 1356.32V1730.63H3346.19V1687.13L3380.22 1653.08C3390.24 1661.38 3402.71 1665.91 3415.89 1665.91C3430.86 1665.91 3444.92 1660.08 3455.5 1649.49C3477.35 1627.64 3477.35 1592.07 3455.5 1570.22C3444.92 1559.62 3430.86 1553.79 3415.89 1553.79C3412.44 1553.79 3409.05 1554.14 3405.73 1554.75C3415.21 1541.59 3420.87 1525.51 3420.87 1508.08C3420.87 1463.94 3384.98 1428.04 3340.87 1428.04C3308.52 1428.04 3280.65 1447.39 3268.06 1475.11C3267.48 1474.9 3266.86 1474.74 3266.2 1474.74H3178.19V1270.87C3178.19 1267.92 3175.81 1265.54 3172.86 1265.54H3073.65V1181.22C3073.65 1178.27 3071.27 1175.89 3068.32 1175.89C3065.38 1175.89 3063 1178.27 3063 1181.22V1265.54H2988.05C2985.11 1265.54 2982.73 1267.92 2982.73 1270.87V1730.63H2914.28V1617.61H2952.45C2955.4 1617.61 2957.78 1615.23 2957.78 1612.28C2957.78 1611.07 2957.37 1609.94 2956.69 1609.05L2945.47 1586.6C2945.3 1586.03 2945.04 1585.54 2944.71 1585.07L2917.92 1531.45C2917.01 1529.65 2915.17 1528.51 2913.16 1528.51H2776.84V1359.78H2900.32C2903.26 1359.78 2905.64 1357.4 2905.64 1354.46V1014.71H3063V1157.4C3063 1160.35 3065.38 1162.73 3068.32 1162.73C3071.27 1162.73 3073.65 1160.35 3073.65 1157.4V1009.38C3073.65 1006.43 3071.27 1004.05 3068.32 1004.05H2900.32C2897.38 1004.05 2894.99 1006.43 2894.99 1009.38V1349.13H2776.84V1214.84C2776.84 1211.89 2774.46 1209.51 2771.51 1209.51H2562.16V1009.38C2562.16 1007.26 2560.91 1005.35 2558.98 1004.5L2285.88 884.49V371.523C2285.88 369.663 2284.92 367.942 2283.33 366.972C2281.75 366.003 2279.77 365.927 2278.12 366.785L2123.18 446.633C2121.54 447.476 2120.46 449.112 2120.31 450.95L2114.21 527.761H2024.82C2021.87 527.761 2019.49 530.148 2019.49 533.089V689.109H1948V371.523C1948 369.77 1947.14 368.123 1945.69 367.133C1944.25 366.136 1942.41 365.927 1940.77 366.547L1871.17 393.263V273.93C1871.17 270.985 1868.79 268.603 1865.84 268.603C1862.9 268.603 1860.52 270.985 1860.52 273.93V397.351L1791.14 423.983C1789.08 424.776 1787.72 426.753 1787.72 428.96V852.288H1724.62V747.232C1724.62 744.29 1722.23 741.903 1719.29 741.903C1716.35 741.903 1713.96 744.29 1713.96 747.232V1496.65C1713.43 1500.39 1713.05 1504.19 1713.05 1508.08C1713.05 1525.51 1718.7 1541.59 1728.18 1554.75C1724.86 1554.14 1721.47 1553.79 1718.03 1553.79C1703.06 1553.79 1688.99 1559.62 1678.41 1570.22C1667.83 1580.8 1662 1594.88 1662 1609.86C1662 1624.83 1667.83 1638.9 1678.41 1649.49C1688.03 1659.11 1700.53 1664.75 1713.96 1665.71V1730.63H1632.38V1711.87H1647.82C1650.76 1711.87 1653.15 1709.48 1653.15 1706.54C1653.15 1703.6 1650.76 1701.21 1647.82 1701.21H1456.48C1453.54 1701.21 1451.16 1703.6 1451.16 1706.54C1451.16 1709.48 1453.54 1711.87 1456.48 1711.87H1472.62V1730.63H1410.24V1573.06C1410.24 1570.11 1407.85 1567.73 1404.91 1567.73C1401.97 1567.73 1399.59 1570.11 1399.59 1573.06V1730.63H1165.84V1381.33C1165.84 1378.39 1163.45 1376 1160.51 1376C1157.57 1376 1155.19 1378.39 1155.19 1381.33V1730.63H1105.85V967.475L1155.19 918.112V1344.03C1155.19 1346.97 1157.57 1349.36 1160.51 1349.36C1163.45 1349.36 1165.84 1346.97 1165.84 1344.03V910.578H1491.2V1190.83C1491.2 1193.78 1493.58 1196.16 1496.53 1196.16C1499.47 1196.16 1501.86 1193.78 1501.86 1190.83V905.249C1501.86 902.302 1499.47 899.92 1496.53 899.92H1483.28V617.237L1643.73 540.932V959.914C1643.73 962.861 1646.11 965.243 1649.05 965.243C1652 965.243 1654.38 962.861 1654.38 959.914V538.417H1713.96V719.167C1713.96 722.107 1716.35 724.495 1719.29 724.495C1722.23 724.495 1724.62 722.107 1724.62 719.167V533.089C1724.62 530.148 1722.23 527.761 1719.29 527.761H1654.38V428.96C1654.38 427.105 1653.42 425.383 1651.84 424.419C1650.25 423.444 1648.29 423.364 1646.64 424.206L1565.85 465.215C1563.23 466.546 1562.18 469.754 1563.51 472.381C1564.84 475.003 1568.04 476.059 1570.67 474.72L1643.73 437.634V529.136L1483.28 605.434V519.081L1547.94 486.257C1550.56 484.929 1551.61 481.723 1550.28 479.094C1548.95 476.474 1545.74 475.418 1543.12 476.756L1475.54 511.062C1473.75 511.966 1472.62 513.805 1472.62 515.809V612.888L1363.13 899.92H1160.51C1159.82 899.92 1159.13 900.059 1158.48 900.331C1157.82 900.597 1157.24 900.991 1156.75 901.482L1105.85 952.407V857.617C1105.85 856.69 1105.61 855.779 1105.15 854.974L1012.07 691.794C1011.12 690.131 1009.35 689.109 1007.44 689.109H905.854L829.013 566.217C828.042 564.66 826.34 563.713 824.502 563.713H745.104V503.009C745.104 500.069 742.718 497.681 739.779 497.681C736.833 497.681 734.453 500.069 734.453 503.009V563.713H693.83C693.117 563.713 692.424 563.861 691.786 564.128L690.672 564.864L690.086 565.252L690.065 565.273L611.684 642.767C610.668 643.768 610.104 645.132 610.104 646.555V1349.31C610.104 1352.26 612.484 1354.64 615.428 1354.64C618.369 1354.64 620.754 1352.26 620.754 1349.31V648.781L688.505 581.797V899.436C688.505 902.376 690.886 904.764 693.83 904.764C696.77 904.764 699.156 902.376 699.156 899.436V574.369H734.453V698.62C734.453 701.561 736.833 703.949 739.779 703.949C742.718 703.949 745.104 701.561 745.104 698.62V574.369H821.551L898.388 697.261C899.361 698.822 901.066 699.765 902.903 699.765H1004.35L1095.2 859.03V1730.63H699.156V931.749C699.156 928.802 696.77 926.42 693.83 926.42C690.886 926.42 688.505 928.802 688.505 931.749V1730.63H620.754V1544.04C620.754 1541.1 618.369 1538.71 615.428 1538.71C612.484 1538.71 610.104 1541.1 610.104 1544.04V1730.63H499.061V1457.17C518.143 1479.97 565.796 1523.55 651.317 1523.55C654.033 1523.55 656.792 1523.5 659.582 1523.41C662.522 1523.32 664.828 1520.85 664.732 1517.91C664.636 1514.97 662.116 1512.53 659.242 1512.76C552.365 1516.11 505.19 1448.97 499.061 1439.46V1401.2C516.087 1421.21 556.033 1456.09 627.784 1456.09C630.18 1456.09 632.619 1456.05 635.08 1455.97C638.025 1455.88 640.325 1453.42 640.235 1450.47C640.138 1447.53 637.694 1445.06 634.739 1445.32C543.62 1448.16 504.786 1392.55 499.061 1383.46V1343.16C514.271 1360.32 547.832 1387.94 606.524 1387.94C608.543 1387.94 610.599 1387.9 612.68 1387.83C615.62 1387.74 617.926 1385.27 617.831 1382.34C617.741 1379.4 615.263 1376.93 612.335 1377.19C536.655 1379.58 504.196 1333.82 499.061 1325.74V1296.25C512.918 1311.34 542.07 1334.13 591.901 1334.13C593.663 1334.13 595.464 1334.1 597.28 1334.04C600.219 1333.94 602.525 1331.48 602.435 1328.54C602.338 1325.6 599.867 1323.14 596.938 1323.39C531.786 1325.33 503.705 1286.34 499.061 1279.09V1249.07C511.991 1262.8 538.279 1282.62 582.597 1282.62C584.201 1282.62 585.829 1282.59 587.481 1282.53C590.42 1282.44 592.727 1279.98 592.63 1277.04C592.535 1274.1 590.043 1271.61 587.134 1271.89C528.761 1273.71 503.423 1238.89 499.061 1232.14V1208.72C510.255 1219.88 531.493 1234.53 565.977 1234.53C567.292 1234.53 568.628 1234.51 569.98 1234.46C572.921 1234.37 575.226 1231.9 575.131 1228.97C575.034 1226.03 572.521 1223.53 569.635 1223.81C523.372 1225.22 502.917 1198.03 499.061 1192.19V1167.54C508.222 1175.85 524.124 1185.54 548.748 1185.54C549.765 1185.54 550.798 1185.52 551.847 1185.48C554.788 1185.39 557.093 1182.93 556.998 1179.99C556.901 1177.05 554.468 1174.53 551.508 1174.84C513.615 1175.88 498.981 1151.62 498.353 1150.54L498.135 1150.29L497.709 1149.73L497.193 1149.22L496.628 1148.8L496.377 1148.58L496.089 1148.48L495.472 1148.22L494.721 1148.02L494.039 1147.93L493.736 1147.87L493.449 1147.93L492.718 1148.03L492.01 1148.22L491.387 1148.48L491.094 1148.58L490.839 1148.8L490.28 1149.23L489.768 1149.73L489.337 1150.3L489.113 1150.56C488.964 1150.81 474.159 1175.97 435.971 1174.84C433.04 1174.55 430.572 1177.05 430.478 1179.99C430.38 1182.93 432.686 1185.39 435.629 1185.48C436.679 1185.52 437.706 1185.54 438.728 1185.54C463.351 1185.54 479.256 1175.85 488.41 1167.53V1192.19C484.565 1198.01 464.109 1225.18 417.84 1223.81C414.99 1223.56 412.441 1226.03 412.343 1228.97C412.25 1231.9 414.558 1234.37 417.497 1234.46C418.851 1234.51 420.183 1234.53 421.499 1234.53C455.978 1234.53 477.218 1219.87 488.41 1208.71V1232.12C484.177 1238.56 458.374 1273.66 400.339 1271.89C397.337 1271.63 394.941 1274.1 394.846 1277.04C394.751 1279.98 397.059 1282.44 399.996 1282.53C401.649 1282.59 403.272 1282.62 404.88 1282.62C449.194 1282.62 475.482 1262.8 488.41 1249.07V1279.06C483.926 1285.92 455.258 1325.36 390.539 1323.39C387.645 1323.17 385.141 1325.6 385.044 1328.54C384.952 1331.48 387.259 1333.94 390.195 1334.04C392.015 1334.1 393.807 1334.13 395.575 1334.13C445.402 1334.13 474.555 1311.34 488.41 1296.25V1325.71C483.389 1333.42 450.124 1379.5 375.137 1377.19C372.247 1376.96 369.738 1379.4 369.643 1382.34C369.55 1385.27 371.853 1387.74 374.792 1387.83C376.88 1387.9 378.924 1387.94 380.952 1387.94C439.635 1387.94 473.207 1360.32 488.41 1343.15V1383.44C482.883 1392.05 443.243 1448.29 352.737 1445.32C349.815 1445.09 347.338 1447.53 347.244 1450.47C347.149 1453.42 349.452 1455.88 352.395 1455.97C354.864 1456.05 357.293 1456.09 359.69 1456.09C431.437 1456.09 471.388 1421.2 488.41 1401.2V1439.48C486.056 1443.18 477.554 1455.66 461.852 1469.2C459.624 1471.13 459.374 1474.49 461.296 1476.73C462.35 1477.95 463.837 1478.57 465.333 1478.57C466.562 1478.57 467.799 1478.15 468.806 1477.28C477.234 1470.01 483.692 1463.07 488.41 1457.38V1730.63H452.325V1480.07C452.325 1477.12 449.941 1474.74 446.999 1474.74H290.195C289.536 1474.74 288.918 1474.9 288.335 1475.11C275.75 1447.39 247.883 1428.04 215.527 1428.04C171.416 1428.04 135.529 1463.94 135.529 1508.08C135.529 1525.51 141.181 1541.59 150.661 1554.75C147.343 1554.14 143.953 1553.79 140.508 1553.79C125.537 1553.79 111.471 1559.62 100.886 1570.22C90.3064 1580.8 84.4794 1594.88 84.4794 1609.86C84.4794 1624.83 90.3064 1638.9 100.886 1649.49C111.471 1660.08 125.537 1665.91 140.508 1665.91C153.682 1665.91 166.153 1661.38 176.173 1653.08L210.201 1687.13V1730.63H5.32582C2.38364 1730.63 0 1733.01 0 1735.95C0 1738.9 2.38364 1741.28 5.32582 1741.28H3621.33C3624.28 1741.28 3626.66 1738.9 3626.66 1735.95C3626.66 1733.01 3624.28 1730.63 3621.33 1730.63H3621.33Z" fill="#2D5B73"></path> <path d="M1386.43 1157.4C1386.43 1147.21 1394.72 1138.91 1404.91 1138.91C1415.1 1138.91 1423.38 1147.21 1423.38 1157.4C1423.38 1167.6 1415.1 1175.89 1404.91 1175.89C1394.72 1175.89 1386.43 1167.6 1386.43 1157.4ZM1399.59 1508.08V1537.97C1399.59 1540.91 1401.97 1543.3 1404.91 1543.3C1407.85 1543.3 1410.24 1540.91 1410.24 1537.97V1356.32C1410.24 1273.52 1477.56 1206.15 1560.31 1206.15H1640.12C1643.06 1206.15 1645.44 1203.77 1645.44 1200.83C1645.44 1197.88 1643.06 1195.5 1640.12 1195.5H1560.31C1491.92 1195.5 1433.41 1238.48 1410.24 1298.85V1186.03C1423.76 1183.52 1434.04 1171.65 1434.04 1157.4C1434.04 1141.33 1420.97 1128.26 1404.91 1128.26C1388.85 1128.26 1375.78 1141.33 1375.78 1157.4C1375.78 1171.65 1386.06 1183.52 1399.59 1186.03V1508.08Z" fill="#2D5B73"></path> <path d="M1596.73 1293.48C1578.05 1293.48 1562.86 1278.27 1562.86 1259.58C1562.86 1240.9 1578.05 1225.69 1596.73 1225.69C1615.41 1225.69 1630.61 1240.9 1630.61 1259.58C1630.61 1278.27 1615.41 1293.48 1596.73 1293.48ZM1641.26 1259.58C1641.26 1246.02 1635.15 1233.87 1625.56 1225.69H1640.11C1643.06 1225.69 1645.44 1223.31 1645.44 1220.36C1645.44 1217.42 1643.06 1215.03 1640.11 1215.03H1553.35C1550.41 1215.03 1548.03 1217.42 1548.03 1220.36C1548.03 1223.31 1550.41 1225.69 1553.35 1225.69H1567.91C1558.32 1233.87 1552.21 1246.02 1552.21 1259.58C1552.21 1284.15 1572.18 1304.14 1596.73 1304.14C1621.28 1304.14 1641.26 1284.15 1641.26 1259.58Z" fill="#2D5B73"></path> <path d="M1591.17 1326.21V1347.22C1591.17 1350.16 1593.55 1352.55 1596.49 1352.55C1599.43 1352.55 1601.82 1350.16 1601.82 1347.22V1326.21C1601.82 1323.26 1599.43 1320.88 1596.49 1320.88C1593.55 1320.88 1591.17 1323.26 1591.17 1326.21Z" fill="#2D5B73"></path> <path d="M1644.58 1340.93C1645.54 1341.68 1646.68 1342.04 1647.82 1342.04C1649.41 1342.04 1650.99 1341.32 1652.04 1339.96C1653.83 1337.63 1653.4 1334.28 1651.06 1332.48L1625.86 1313.11C1623.54 1311.31 1620.19 1311.75 1618.4 1314.08C1616.61 1316.42 1617.05 1319.76 1619.38 1321.55L1644.58 1340.93Z" fill="#2D5B73"></path> <path d="M1574.59 1314.08C1572.8 1311.75 1569.45 1311.31 1567.13 1313.11L1541.92 1332.48C1539.59 1334.28 1539.16 1337.63 1540.95 1339.96C1542 1341.32 1543.58 1342.04 1545.17 1342.04C1546.31 1342.04 1547.45 1341.68 1548.42 1340.93L1573.62 1321.55C1575.95 1319.76 1576.39 1316.42 1574.59 1314.08Z" fill="#2D5B73"></path> <path d="M338.73 1700.19H419.934C422.874 1700.19 425.258 1697.81 425.258 1694.86C425.258 1691.91 422.874 1689.53 419.934 1689.53H338.73C335.788 1689.53 333.404 1691.91 333.404 1694.86C333.404 1697.81 335.788 1700.19 338.73 1700.19Z" fill="#2D5B73"></path> <path d="M338.73 1677.78H419.934C422.874 1677.78 425.258 1675.39 425.258 1672.45C425.258 1669.5 422.874 1667.12 419.934 1667.12H338.73C335.788 1667.12 333.404 1669.5 333.404 1672.45C333.404 1675.39 335.788 1677.78 338.73 1677.78Z" fill="#2D5B73"></path> <path d="M338.73 1655.36H419.934C422.874 1655.36 425.258 1652.98 425.258 1650.04C425.258 1647.09 422.874 1644.71 419.934 1644.71H338.73C335.788 1644.71 333.404 1647.09 333.404 1650.04C333.404 1652.98 335.788 1655.36 338.73 1655.36Z" fill="#2D5B73"></path> <path d="M338.73 1632.95H419.934C422.874 1632.95 425.258 1630.57 425.258 1627.62C425.258 1624.67 422.874 1622.29 419.934 1622.29H338.73C335.788 1622.29 333.404 1624.67 333.404 1627.62C333.404 1630.57 335.788 1632.95 338.73 1632.95Z" fill="#2D5B73"></path> <path d="M338.73 1610.54H419.934C422.874 1610.54 425.258 1608.15 425.258 1605.21C425.258 1602.26 422.874 1599.88 419.934 1599.88H338.73C335.788 1599.88 333.404 1602.26 333.404 1605.21C333.404 1608.15 335.788 1610.54 338.73 1610.54Z" fill="#2D5B73"></path> <path d="M338.73 1588.12H419.934C422.874 1588.12 425.258 1585.74 425.258 1582.8C425.258 1579.85 422.874 1577.47 419.934 1577.47H338.73C335.788 1577.47 333.404 1579.85 333.404 1582.8C333.404 1585.74 335.788 1588.12 338.73 1588.12Z" fill="#2D5B73"></path> <path d="M338.73 1565.71H419.934C422.874 1565.71 425.258 1563.33 425.258 1560.38C425.258 1557.43 422.874 1555.05 419.934 1555.05H338.73C335.788 1555.05 333.404 1557.43 333.404 1560.38C333.404 1563.33 335.788 1565.71 338.73 1565.71Z" fill="#2D5B73"></path> <path d="M338.73 1543.3H419.934C422.874 1543.3 425.258 1540.91 425.258 1537.97C425.258 1535.02 422.874 1532.64 419.934 1532.64H338.73C335.788 1532.64 333.404 1535.02 333.404 1537.97C333.404 1540.91 335.788 1543.3 338.73 1543.3Z" fill="#2D5B73"></path> <path d="M338.73 1520.88H419.934C422.874 1520.88 425.258 1518.5 425.258 1515.56C425.258 1512.61 422.874 1510.23 419.934 1510.23H338.73C335.788 1510.23 333.404 1512.61 333.404 1515.56C333.404 1518.5 335.788 1520.88 338.73 1520.88Z" fill="#2D5B73"></path> <path d="M2379.5 1644.71H2343.21C2340.27 1644.71 2337.89 1647.09 2337.89 1650.04C2337.89 1652.98 2340.27 1655.36 2343.21 1655.36H2374.17V1679.61H2193.48V1655.36H2321.91C2324.86 1655.36 2327.24 1652.98 2327.24 1650.04C2327.24 1647.09 2324.86 1644.71 2321.91 1644.71H2285.89V1462.58C2285.89 1459.64 2283.5 1457.25 2280.56 1457.25C2277.62 1457.25 2275.23 1459.64 2275.23 1462.58V1644.71H2188.16C2185.21 1644.71 2182.83 1647.09 2182.83 1650.04V1684.94C2182.83 1687.88 2185.21 1690.27 2188.16 1690.27H2379.5C2382.44 1690.27 2384.82 1687.88 2384.82 1684.94V1650.04C2384.82 1647.09 2382.44 1644.71 2379.5 1644.71Z" fill="#2D5B73"></path> <path d="M1461.81 1655.36H1642.5V1679.61H1461.81V1655.36ZM1456.48 1690.27H1647.82C1650.76 1690.27 1653.15 1687.88 1653.15 1684.94V1650.04C1653.15 1647.09 1650.76 1644.71 1647.82 1644.71H1501.86V1244.12C1501.86 1241.17 1499.47 1238.79 1496.53 1238.79C1493.58 1238.79 1491.21 1241.17 1491.21 1244.12V1644.71H1456.48C1453.54 1644.71 1451.16 1647.09 1451.16 1650.04V1684.94C1451.16 1687.88 1453.54 1690.27 1456.48 1690.27Z" fill="#2D5B73"></path> <path d="M2321.36 995.801L2465.26 1024.6H2321.36V995.801ZM2316.03 1035.25H2519.04C2521.77 1035.25 2524.07 1033.18 2524.34 1030.45C2524.61 1027.72 2522.77 1025.23 2520.08 1024.7L2317.08 984.078C2315.51 983.779 2313.88 984.169 2312.66 985.181C2311.42 986.193 2310.71 987.702 2310.71 989.3V1029.92C2310.71 1032.87 2313.09 1035.25 2316.03 1035.25Z" fill="#2D5B73"></path> <path d="M2321.36 1571.78H2513.71V1587.74H2321.36V1571.78ZM2316.03 1598.4H2519.04C2521.98 1598.4 2524.37 1596.01 2524.37 1593.07V1566.45C2524.37 1563.51 2521.98 1561.12 2519.04 1561.12H2316.03C2313.09 1561.12 2310.71 1563.51 2310.71 1566.45V1593.07C2310.71 1596.01 2313.09 1598.4 2316.03 1598.4Z" fill="#2D5B73"></path> <path d="M2321.36 1515.75H2513.71V1531.71H2321.36V1515.75ZM2316.03 1542.36H2519.04C2521.98 1542.36 2524.37 1539.98 2524.37 1537.03V1510.42C2524.37 1507.47 2521.98 1505.09 2519.04 1505.09H2316.03C2313.09 1505.09 2310.71 1507.47 2310.71 1510.42V1537.03C2310.71 1539.98 2313.09 1542.36 2316.03 1542.36Z" fill="#2D5B73"></path> <path d="M2321.36 1459.71H2513.71V1475.67H2321.36V1459.71ZM2316.03 1486.32H2519.04C2521.98 1486.32 2524.37 1483.94 2524.37 1480.99V1454.38C2524.37 1451.43 2521.98 1449.05 2519.04 1449.05H2316.03C2313.09 1449.05 2310.71 1451.43 2310.71 1454.38V1480.99C2310.71 1483.94 2313.09 1486.32 2316.03 1486.32Z" fill="#2D5B73"></path> <path d="M2321.36 1403.68H2513.71V1419.64H2321.36V1403.68ZM2316.03 1430.29H2519.04C2521.98 1430.29 2524.37 1427.91 2524.37 1424.97V1398.35C2524.37 1395.4 2521.98 1393.02 2519.04 1393.02H2316.03C2313.09 1393.02 2310.71 1395.4 2310.71 1398.35V1424.97C2310.71 1427.91 2313.09 1430.29 2316.03 1430.29Z" fill="#2D5B73"></path> <path d="M2316.03 1374.26H2467.03C2469.98 1374.26 2472.36 1371.88 2472.36 1368.93C2472.36 1365.98 2469.98 1363.6 2467.03 1363.6H2321.36V1347.64H2513.71V1363.6H2491C2488.05 1363.6 2485.67 1365.98 2485.67 1368.93C2485.67 1371.88 2488.05 1374.26 2491 1374.26H2519.04C2521.98 1374.26 2524.37 1371.88 2524.37 1368.93V1342.31C2524.37 1339.37 2521.98 1336.99 2519.04 1336.99H2316.03C2313.09 1336.99 2310.71 1339.37 2310.71 1342.31V1368.93C2310.71 1371.88 2313.09 1374.26 2316.03 1374.26Z" fill="#2D5B73"></path> <path d="M2321.36 1291.61H2513.71V1307.57H2321.36V1291.61ZM2316.03 1318.22H2519.04C2521.98 1318.22 2524.37 1315.84 2524.37 1312.9V1286.28C2524.37 1283.34 2521.98 1280.95 2519.04 1280.95H2316.03C2313.09 1280.95 2310.71 1283.34 2310.71 1286.28V1312.9C2310.71 1315.84 2313.09 1318.22 2316.03 1318.22Z" fill="#2D5B73"></path> <path d="M2321.36 1235.57H2513.71V1251.53H2321.36V1235.57ZM2316.03 1262.19H2519.04C2521.98 1262.19 2524.37 1259.81 2524.37 1256.86V1230.24C2524.37 1227.3 2521.98 1224.92 2519.04 1224.92H2316.03C2313.09 1224.92 2310.71 1227.3 2310.71 1230.24V1256.86C2310.71 1259.81 2313.09 1262.19 2316.03 1262.19Z" fill="#2D5B73"></path> <path d="M2321.36 1179.54H2513.71V1195.5H2321.36V1179.54ZM2316.03 1206.15H2519.04C2521.98 1206.15 2524.37 1203.77 2524.37 1200.83V1174.21C2524.37 1171.26 2521.98 1168.88 2519.04 1168.88H2316.03C2313.09 1168.88 2310.71 1171.26 2310.71 1174.21V1200.83C2310.71 1203.77 2313.09 1206.15 2316.03 1206.15Z" fill="#2D5B73"></path> <path d="M2321.36 1123.51H2513.71V1139.47H2321.36V1123.51ZM2316.03 1150.13H2519.04C2521.98 1150.13 2524.37 1147.74 2524.37 1144.8V1118.18C2524.37 1115.23 2521.98 1112.85 2519.04 1112.85H2316.03C2313.09 1112.85 2310.71 1115.23 2310.71 1118.18V1144.8C2310.71 1147.74 2313.09 1150.13 2316.03 1150.13Z" fill="#2D5B73"></path> <path d="M2316.03 1094.09H2361.85C2364.8 1094.09 2367.18 1091.7 2367.18 1088.76C2367.18 1085.81 2364.8 1083.43 2361.85 1083.43H2321.36V1067.47H2513.71V1083.43H2386.48C2383.54 1083.43 2381.16 1085.81 2381.16 1088.76C2381.16 1091.7 2383.54 1094.09 2386.48 1094.09H2519.04C2521.98 1094.09 2524.37 1091.7 2524.37 1088.76V1062.14C2524.37 1059.19 2521.98 1056.81 2519.04 1056.81H2316.03C2313.09 1056.81 2310.71 1059.19 2310.71 1062.14V1088.76C2310.71 1091.7 2313.09 1094.09 2316.03 1094.09Z" fill="#2D5B73"></path> <path d="M2172.02 1581.2V1556.61H2232.3V1581.2H2172.02ZM2232.3 1492.87V1545.95H2172.02V1492.87H2232.3ZM2242.95 1586.53V1487.54C2242.95 1484.59 2240.57 1482.21 2237.63 1482.21H2166.69C2163.75 1482.21 2161.37 1484.59 2161.37 1487.54V1586.53C2161.37 1589.48 2163.75 1591.86 2166.69 1591.86H2237.63C2240.57 1591.86 2242.95 1589.48 2242.95 1586.53Z" fill="#2D5B73"></path> <path d="M2060.01 1581.2V1556.61H2120.3V1581.2H2060.01ZM2120.3 1492.87V1545.95H2060.01V1492.87H2120.3ZM2125.62 1482.21H2054.69C2051.74 1482.21 2049.36 1484.59 2049.36 1487.54V1586.53C2049.36 1589.48 2051.74 1591.86 2054.69 1591.86H2125.62C2128.57 1591.86 2130.95 1589.48 2130.95 1586.53V1487.54C2130.95 1484.59 2128.57 1482.21 2125.62 1482.21Z" fill="#2D5B73"></path> <path d="M1948 1581.2V1556.61H2008.29V1581.2H1948ZM2008.29 1492.87V1545.95H1948V1492.87H2008.29ZM2013.61 1482.21H1942.68C1939.73 1482.21 1937.35 1484.59 1937.35 1487.54V1586.53C1937.35 1589.48 1939.73 1591.86 1942.68 1591.86H2013.61C2016.56 1591.86 2018.94 1589.48 2018.94 1586.53V1487.54C2018.94 1484.59 2016.56 1482.21 2013.61 1482.21Z" fill="#2D5B73"></path> <path d="M2232.3 1347.17V1400.26H2172.02V1347.17H2232.3ZM2172.02 1435.51V1410.91H2232.3V1435.51H2172.02ZM2166.69 1446.17H2237.63C2240.57 1446.17 2242.95 1443.79 2242.95 1440.84V1341.85C2242.95 1338.9 2240.57 1336.52 2237.63 1336.52H2166.69C2163.75 1336.52 2161.37 1338.9 2161.37 1341.85V1440.84C2161.37 1443.79 2163.75 1446.17 2166.69 1446.17Z" fill="#2D5B73"></path> <path d="M2060.01 1435.51V1410.91H2120.3V1435.51H2060.01ZM2120.3 1347.17V1400.26H2060.01V1347.17H2120.3ZM2125.62 1336.52H2054.69C2051.74 1336.52 2049.36 1338.9 2049.36 1341.85V1440.84C2049.36 1443.79 2051.74 1446.17 2054.69 1446.17H2125.62C2128.57 1446.17 2130.95 1443.79 2130.95 1440.84V1341.85C2130.95 1338.9 2128.57 1336.52 2125.62 1336.52Z" fill="#2D5B73"></path> <path d="M1948 1435.51V1410.91H2008.29V1435.51H1948ZM2008.29 1347.17V1400.26H1948V1347.17H2008.29ZM2013.61 1336.52H1942.68C1939.73 1336.52 1937.35 1338.9 1937.35 1341.85V1440.84C1937.35 1443.79 1939.73 1446.17 1942.68 1446.17H2013.61C2016.56 1446.17 2018.94 1443.79 2018.94 1440.84V1341.85C2018.94 1338.9 2016.56 1336.52 2013.61 1336.52Z" fill="#2D5B73"></path> <path d="M2232.3 1201.49V1254.57H2172.02V1201.49H2232.3ZM2172.02 1289.82V1265.23H2232.3V1289.82H2172.02ZM2166.69 1300.48H2237.63C2240.57 1300.48 2242.95 1298.1 2242.95 1295.15V1196.16C2242.95 1193.22 2240.57 1190.83 2237.63 1190.83H2166.69C2163.75 1190.83 2161.37 1193.22 2161.37 1196.16V1295.15C2161.37 1298.1 2163.75 1300.48 2166.69 1300.48Z" fill="#2D5B73"></path> <path d="M2060.01 1289.82V1265.23H2120.3V1289.82H2060.01ZM2120.3 1201.49V1254.57H2060.01V1201.49H2120.3ZM2125.62 1190.83H2054.69C2051.74 1190.83 2049.36 1193.22 2049.36 1196.16V1295.15C2049.36 1298.1 2051.74 1300.48 2054.69 1300.48H2125.62C2128.57 1300.48 2130.95 1298.1 2130.95 1295.15V1196.16C2130.95 1193.22 2128.57 1190.83 2125.62 1190.83Z" fill="#2D5B73"></path> <path d="M1948 1289.82V1265.23H2008.29V1289.82H1948ZM2008.29 1201.49V1254.57H1948V1201.49H2008.29ZM2013.61 1190.83H1942.68C1939.73 1190.83 1937.35 1193.22 1937.35 1196.16V1295.15C1937.35 1298.1 1939.73 1300.48 1942.68 1300.48H2013.61C2016.56 1300.48 2018.94 1298.1 2018.94 1295.15V1196.16C2018.94 1193.22 2016.56 1190.83 2013.61 1190.83Z" fill="#2D5B73"></path> <path d="M2232.3 1055.79V1108.88H2172.02V1055.79H2232.3ZM2172.02 1144.14V1119.53H2232.3V1144.14H2172.02ZM2166.69 1154.79H2237.63C2240.57 1154.79 2242.95 1152.41 2242.95 1149.46V1050.47C2242.95 1047.52 2240.57 1045.14 2237.63 1045.14H2166.69C2163.75 1045.14 2161.37 1047.52 2161.37 1050.47V1149.46C2161.37 1152.41 2163.75 1154.79 2166.69 1154.79Z" fill="#2D5B73"></path> <path d="M2060.01 1144.14V1119.53H2120.3V1144.14H2060.01ZM2120.3 1055.79V1108.88H2060.01V1055.79H2120.3ZM2125.62 1045.14H2054.69C2051.74 1045.14 2049.36 1047.52 2049.36 1050.47V1149.46C2049.36 1152.41 2051.74 1154.79 2054.69 1154.79H2125.62C2128.57 1154.79 2130.95 1152.41 2130.95 1149.46V1050.47C2130.95 1047.52 2128.57 1045.14 2125.62 1045.14Z" fill="#2D5B73"></path> <path d="M1948 1144.14V1119.53H2008.29V1144.14H1948ZM2008.29 1055.79V1108.88H1948V1055.79H2008.29ZM2013.61 1045.14H1942.68C1939.73 1045.14 1937.35 1047.52 1937.35 1050.47V1149.46C1937.35 1152.41 1939.73 1154.79 1942.68 1154.79H2013.61C2016.56 1154.79 2018.94 1152.41 2018.94 1149.46V1050.47C2018.94 1047.52 2016.56 1045.14 2013.61 1045.14Z" fill="#2D5B73"></path> <path d="M1325.57 1631.87H1210.64V1592.83H1325.57V1631.87ZM1330.9 1582.17H1205.32C1202.38 1582.17 1199.99 1584.56 1199.99 1587.5V1637.2C1199.99 1640.14 1202.38 1642.52 1205.32 1642.52H1330.9C1333.84 1642.52 1336.22 1640.14 1336.22 1637.2V1587.5C1336.22 1584.56 1333.84 1582.17 1330.9 1582.17Z" fill="#2D5B73"></path> <path d="M1325.57 1553.41H1210.64V1514.38H1325.57V1553.41ZM1336.22 1509.05C1336.22 1506.1 1333.84 1503.72 1330.9 1503.72H1205.32C1202.38 1503.72 1199.99 1506.1 1199.99 1509.05V1558.74C1199.99 1561.69 1202.38 1564.07 1205.32 1564.07H1330.9C1333.84 1564.07 1336.22 1561.69 1336.22 1558.74V1509.05Z" fill="#2D5B73"></path> <path d="M1325.57 1474.97H1210.64V1435.93H1325.57V1474.97ZM1336.22 1430.6C1336.22 1427.66 1333.84 1425.27 1330.9 1425.27H1205.32C1202.38 1425.27 1199.99 1427.66 1199.99 1430.6V1480.3C1199.99 1483.24 1202.38 1485.63 1205.32 1485.63H1330.9C1333.84 1485.63 1336.22 1483.24 1336.22 1480.3V1430.6Z" fill="#2D5B73"></path> <path d="M1325.57 1396.52H1210.64V1357.48H1325.57V1396.52ZM1336.22 1352.16C1336.22 1349.21 1333.84 1346.83 1330.9 1346.83H1205.32C1202.38 1346.83 1199.99 1349.21 1199.99 1352.16V1401.85C1199.99 1404.8 1202.38 1407.18 1205.32 1407.18H1330.9C1333.84 1407.18 1336.22 1404.8 1336.22 1401.85V1352.16Z" fill="#2D5B73"></path> <path d="M1325.57 1318.08H1210.64V1279.04H1325.57V1318.08ZM1336.22 1273.71C1336.22 1270.76 1333.84 1268.38 1330.9 1268.38H1205.32C1202.38 1268.38 1199.99 1270.76 1199.99 1273.71V1323.4C1199.99 1326.35 1202.38 1328.73 1205.32 1328.73H1330.9C1333.84 1328.73 1336.22 1326.35 1336.22 1323.4V1273.71Z" fill="#2D5B73"></path> <path d="M1325.57 1239.62H1210.64V1200.59H1325.57V1239.62ZM1336.22 1195.26C1336.22 1192.32 1333.84 1189.93 1330.9 1189.93H1205.32C1202.38 1189.93 1199.99 1192.32 1199.99 1195.26V1244.95C1199.99 1247.9 1202.38 1250.28 1205.32 1250.28H1330.9C1333.84 1250.28 1336.22 1247.9 1336.22 1244.95V1195.26Z" fill="#2D5B73"></path> <path d="M1325.57 1161.18H1210.64V1122.14H1325.57V1161.18ZM1336.22 1116.82C1336.22 1113.87 1333.84 1111.49 1330.9 1111.49H1205.32C1202.38 1111.49 1199.99 1113.87 1199.99 1116.82V1166.51C1199.99 1169.45 1202.38 1171.83 1205.32 1171.83H1330.9C1333.84 1171.83 1336.22 1169.45 1336.22 1166.51V1116.82Z" fill="#2D5B73"></path> <path d="M1451.16 1082.73H1210.64V1043.69H1451.16V1082.73ZM1461.81 1088.06V1038.37C1461.81 1035.42 1459.42 1033.04 1456.48 1033.04H1205.32C1202.38 1033.04 1199.99 1035.42 1199.99 1038.37V1088.06C1199.99 1091.01 1202.38 1093.39 1205.32 1093.39H1456.48C1459.42 1093.39 1461.81 1091.01 1461.81 1088.06Z" fill="#2D5B73"></path> <path d="M1267.47 965.241C1270.4 965.241 1272.79 962.859 1272.79 959.912C1272.79 956.971 1270.4 954.585 1267.47 954.585H1205.32C1202.38 954.585 1199.99 956.971 1199.99 959.912V1009.61C1199.99 1012.55 1202.38 1014.94 1205.32 1014.94H1456.48C1459.42 1014.94 1461.81 1012.55 1461.81 1009.61V959.912C1461.81 956.971 1459.42 954.585 1456.48 954.585H1298.53C1295.59 954.585 1293.2 956.971 1293.2 959.912C1293.2 962.859 1295.59 965.241 1298.53 965.241H1451.16V1004.28H1210.64V965.241H1267.47Z" fill="#2D5B73"></path> <path d="M1537.32 1157.4V658.697C1537.32 655.755 1534.94 653.368 1532 653.368C1529.06 653.368 1526.67 655.755 1526.67 658.697V1157.4C1526.67 1160.35 1529.06 1162.73 1532 1162.73C1534.94 1162.73 1537.32 1160.35 1537.32 1157.4Z" fill="#2D5B73"></path> <path d="M1565.04 1157.4C1565.04 1160.35 1567.43 1162.73 1570.37 1162.73C1573.31 1162.73 1575.69 1160.35 1575.69 1157.4V768.545C1575.69 765.602 1573.31 763.216 1570.37 763.216C1567.43 763.216 1565.04 765.602 1565.04 768.545V1157.4Z" fill="#2D5B73"></path> <path d="M1570.37 736.573C1573.31 736.573 1575.69 734.191 1575.69 731.244V658.697C1575.69 655.755 1573.31 653.368 1570.37 653.368C1567.43 653.368 1565.04 655.755 1565.04 658.697V731.244C1565.04 734.191 1567.43 736.573 1570.37 736.573Z" fill="#2D5B73"></path> <path d="M1613.86 1157.4V658.697C1613.86 655.755 1611.48 653.368 1608.53 653.368C1605.59 653.368 1603.2 655.755 1603.2 658.697V1157.4C1603.2 1160.35 1605.59 1162.73 1608.53 1162.73C1611.48 1162.73 1613.86 1160.35 1613.86 1157.4Z" fill="#2D5B73"></path> <path d="M1526.67 1400.68V1622.02C1526.67 1624.97 1529.06 1627.35 1532 1627.35C1534.94 1627.35 1537.32 1624.97 1537.32 1622.02V1400.68C1537.32 1397.74 1534.94 1395.35 1532 1395.35C1529.06 1395.35 1526.67 1397.74 1526.67 1400.68Z" fill="#2D5B73"></path> <path d="M1570.37 1627.35C1573.31 1627.35 1575.69 1624.97 1575.69 1622.02V1400.68C1575.69 1397.74 1573.31 1395.35 1570.37 1395.35C1567.43 1395.35 1565.04 1397.74 1565.04 1400.68V1622.02C1565.04 1624.97 1567.43 1627.35 1570.37 1627.35Z" fill="#2D5B73"></path> <path d="M1603.2 1400.68V1622.02C1603.2 1624.97 1605.59 1627.35 1608.53 1627.35C1611.48 1627.35 1613.86 1624.97 1613.86 1622.02V1400.68C1613.86 1397.74 1611.48 1395.35 1608.53 1395.35C1605.59 1395.35 1603.2 1397.74 1603.2 1400.68Z" fill="#2D5B73"></path> <path d="M1793.05 1034.97C1790.11 1034.97 1787.72 1037.36 1787.72 1040.3V1362.4C1787.72 1365.34 1790.11 1367.73 1793.05 1367.73C1795.99 1367.73 1798.37 1365.34 1798.37 1362.4V1040.3C1798.37 1037.36 1795.99 1034.97 1793.05 1034.97Z" fill="#2D5B73"></path> <path d="M826.644 1611.01V1644.66H745.105V1611.01H826.644ZM863 1644.66H837.294V1611.01H863V1644.66ZM745.105 1669.92V1655.31H863V1669.92H745.105ZM734.453 1675.25C734.453 1678.19 736.834 1680.57 739.779 1680.57H868.326C871.27 1680.57 873.651 1678.19 873.651 1675.25V1605.68C873.651 1602.73 871.27 1600.35 868.326 1600.35H739.779C736.834 1600.35 734.453 1602.73 734.453 1605.68V1675.25Z" fill="#2D5B73"></path> <path d="M826.644 1510.14V1543.8H745.105V1510.14H826.644ZM863 1543.8H837.294V1510.14H863V1543.8ZM745.105 1569.06V1554.45H830.164C830.733 1554.66 831.329 1554.82 831.968 1554.82C832.608 1554.82 833.204 1554.66 833.773 1554.45H863V1569.06H745.105ZM734.453 1574.39C734.453 1577.34 736.834 1579.72 739.779 1579.72H868.326C871.27 1579.72 873.651 1577.34 873.651 1574.39V1504.81C873.651 1501.87 871.27 1499.48 868.326 1499.48H739.779C736.834 1499.48 734.453 1501.87 734.453 1504.81V1574.39Z" fill="#2D5B73"></path> <path d="M826.644 1409.28V1442.93H745.105V1409.28H826.644ZM863 1442.93H837.294V1409.28H863V1442.93ZM745.105 1468.2V1453.59H863V1468.2H745.105ZM734.453 1473.53C734.453 1476.48 736.834 1478.86 739.779 1478.86H868.326C871.27 1478.86 873.651 1476.48 873.651 1473.53V1403.95C873.651 1401.01 871.27 1398.62 868.326 1398.62H739.779C736.834 1398.62 734.453 1401.01 734.453 1403.95V1473.53Z" fill="#2D5B73"></path> <path d="M826.644 1308.42V1342.07H745.105V1308.42H826.644ZM863 1342.07H837.294V1308.42H863V1342.07ZM745.105 1367.34V1352.73H863V1367.34H745.105ZM734.453 1372.67C734.453 1375.61 736.834 1377.99 739.779 1377.99H868.326C871.27 1377.99 873.651 1375.61 873.651 1372.67V1303.09C873.651 1300.15 871.27 1297.76 868.326 1297.76H739.779C736.834 1297.76 734.453 1300.15 734.453 1303.09V1372.67Z" fill="#2D5B73"></path> <path d="M826.644 1207.56V1241.21H745.105V1207.56H826.644ZM863 1241.21H837.294V1207.56H863V1241.21ZM745.105 1266.48V1251.87H863V1266.48H745.105ZM734.453 1271.81C734.453 1274.75 736.834 1277.14 739.779 1277.14H868.326C871.27 1277.14 873.651 1274.75 873.651 1271.81V1202.23C873.651 1199.28 871.27 1196.9 868.326 1196.9H739.779C736.834 1196.9 734.453 1199.28 734.453 1202.23V1271.81Z" fill="#2D5B73"></path> <path d="M826.644 1106.69V1140.35H745.105V1106.69H826.644ZM863 1140.35H837.294V1106.69H863V1140.35ZM745.105 1165.62V1151.01H863V1165.62H745.105ZM734.453 1170.94C734.453 1173.89 736.834 1176.27 739.779 1176.27H868.326C871.27 1176.27 873.651 1173.89 873.651 1170.94V1101.36C873.651 1098.42 871.27 1096.04 868.326 1096.04H739.779C736.834 1096.04 734.453 1098.42 734.453 1101.36V1170.94Z" fill="#2D5B73"></path> <path d="M826.644 1005.83V1039.49H745.105V1005.83H826.644ZM863 1039.49H837.294V1005.83H863V1039.49ZM745.105 1064.75V1050.15H863V1064.75H745.105ZM734.453 1070.08C734.453 1073.03 736.834 1075.41 739.779 1075.41H868.326C871.27 1075.41 873.651 1073.03 873.651 1070.08V1000.51C873.651 997.559 871.27 995.177 868.326 995.177H739.779C736.834 995.177 734.453 997.559 734.453 1000.51V1070.08Z" fill="#2D5B73"></path> <path d="M826.644 904.971V938.625H745.105V904.971H826.644ZM863 938.625H837.294V904.971H863V938.625ZM745.105 963.888V949.283H863V963.888H745.105ZM734.453 969.217C734.453 972.163 736.834 974.545 739.779 974.545H868.326C871.27 974.545 873.651 972.163 873.651 969.217V899.642C873.651 896.7 871.27 894.313 868.326 894.313H833.002L831.968 894.105L830.941 894.313H739.779C736.834 894.313 734.453 896.7 734.453 899.642V969.217Z" fill="#2D5B73"></path> <path d="M826.644 804.113V837.767H745.105V804.113H826.644ZM863 837.767H837.294V804.113H863V837.767ZM745.105 863.029V848.425H863V863.029H745.105ZM739.779 873.687H868.326C871.27 873.687 873.651 871.299 873.651 868.358V798.784C873.651 795.837 871.27 793.455 868.326 793.455H739.779C736.834 793.455 734.453 795.837 734.453 798.784V868.358C734.453 871.299 736.834 873.687 739.779 873.687Z" fill="#2D5B73"></path> <path d="M989.049 1611.01V1644.66H906.828V1611.01H989.049ZM1024.73 1644.66H999.699V1611.01H1024.73V1644.66ZM906.828 1669.92V1655.31H1024.73V1669.92H906.828ZM896.178 1675.25C896.178 1678.19 898.563 1680.57 901.504 1680.57H1030.06C1032.99 1680.57 1035.38 1678.19 1035.38 1675.25V1605.68C1035.38 1602.73 1032.99 1600.35 1030.06 1600.35H901.504C898.563 1600.35 896.178 1602.73 896.178 1605.68V1675.25Z" fill="#2D5B73"></path> <path d="M989.049 1510.14V1543.8H906.828V1510.14H989.049ZM1024.73 1543.8H999.699V1510.14H1024.73V1543.8ZM906.828 1569.06V1554.45H992.569C993.138 1554.66 993.735 1554.82 994.375 1554.82C995.013 1554.82 995.61 1554.66 996.179 1554.45H1024.73V1569.06H906.828ZM896.178 1574.39C896.178 1577.34 898.563 1579.72 901.504 1579.72H1030.06C1032.99 1579.72 1035.38 1577.34 1035.38 1574.39V1504.81C1035.38 1501.87 1032.99 1499.48 1030.06 1499.48H901.504C898.563 1499.48 896.178 1501.87 896.178 1504.81V1574.39Z" fill="#2D5B73"></path> <path d="M989.049 1409.28V1442.93H906.828V1409.28H989.049ZM1024.73 1442.93H999.699V1409.28H1024.73V1442.93ZM906.828 1468.2V1453.59H1024.73V1468.2H906.828ZM896.178 1473.53C896.178 1476.48 898.563 1478.86 901.504 1478.86H1030.06C1032.99 1478.86 1035.38 1476.48 1035.38 1473.53V1403.95C1035.38 1401.01 1032.99 1398.62 1030.06 1398.62H901.504C898.563 1398.62 896.178 1401.01 896.178 1403.95V1473.53Z" fill="#2D5B73"></path> <path d="M989.049 1308.42V1342.07H906.828V1308.42H989.049ZM1024.73 1342.07H999.699V1308.42H1024.73V1342.07ZM906.828 1367.34V1352.73H1024.73V1367.34H906.828ZM896.178 1372.67C896.178 1375.61 898.563 1377.99 901.504 1377.99H1030.06C1032.99 1377.99 1035.38 1375.61 1035.38 1372.67V1303.09C1035.38 1300.15 1032.99 1297.76 1030.06 1297.76H901.504C898.563 1297.76 896.178 1300.15 896.178 1303.09V1372.67Z" fill="#2D5B73"></path> <path d="M989.049 1207.56V1241.21H906.828V1207.56H989.049ZM1024.73 1241.21H999.699V1207.56H1024.73V1241.21ZM906.828 1266.48V1251.87H1024.73V1266.48H906.828ZM896.178 1271.81C896.178 1274.75 898.563 1277.14 901.504 1277.14H1030.06C1032.99 1277.14 1035.38 1274.75 1035.38 1271.81V1202.23C1035.38 1199.28 1032.99 1196.9 1030.06 1196.9H901.504C898.563 1196.9 896.178 1199.28 896.178 1202.23V1271.81Z" fill="#2D5B73"></path> <path d="M989.049 1106.69V1140.35H906.828V1106.69H989.049ZM1024.73 1140.35H999.699V1106.69H1024.73V1140.35ZM906.828 1165.62V1151.01H1024.73V1165.62H906.828ZM896.178 1170.94C896.178 1173.89 898.563 1176.27 901.504 1176.27H1030.06C1032.99 1176.27 1035.38 1173.89 1035.38 1170.94V1101.36C1035.38 1098.42 1032.99 1096.04 1030.06 1096.04H901.504C898.563 1096.04 896.178 1098.42 896.178 1101.36V1170.94Z" fill="#2D5B73"></path> <path d="M989.049 1005.83V1039.49H906.828V1005.83H989.049ZM1024.73 1039.49H999.699V1005.83H1024.73V1039.49ZM906.828 1064.75V1050.15H1024.73V1064.75H906.828ZM896.178 1070.08C896.178 1073.03 898.563 1075.41 901.504 1075.41H1030.06C1032.99 1075.41 1035.38 1073.03 1035.38 1070.08V1000.51C1035.38 997.559 1032.99 995.177 1030.06 995.177H901.504C898.563 995.177 896.178 997.559 896.178 1000.51V1070.08Z" fill="#2D5B73"></path> <path d="M989.049 904.971V938.625H906.828V904.971H989.049ZM1024.73 938.625H999.699V904.971H1024.73V938.625ZM906.828 963.888V949.283H1024.73V963.888H906.828ZM896.178 969.217C896.178 972.163 898.563 974.545 901.504 974.545H1030.06C1032.99 974.545 1035.38 972.163 1035.38 969.217V899.642C1035.38 896.7 1032.99 894.313 1030.06 894.313H995.407L994.375 894.105L993.347 894.313H901.504C898.563 894.313 896.178 896.7 896.178 899.642V969.217Z" fill="#2D5B73"></path> <path d="M989.049 804.113V837.767H906.828V804.113H989.049ZM1024.73 837.767H999.699V804.113H1024.73V837.767ZM906.828 863.029V848.425H1024.73V863.029H906.828ZM901.504 873.687H1030.06C1032.99 873.687 1035.38 871.299 1035.38 868.358V798.784C1035.38 795.837 1032.99 793.455 1030.06 793.455H901.504C898.563 793.455 896.178 795.837 896.178 798.784V868.358C896.178 871.299 898.563 873.687 901.504 873.687Z" fill="#2D5B73"></path> <path d="M739.779 476.563C742.718 476.563 745.105 474.181 745.105 471.234V439.46C745.105 436.518 742.718 434.131 739.779 434.131C736.834 434.131 734.453 436.518 734.453 439.46V471.234C734.453 474.181 736.834 476.563 739.779 476.563Z" fill="#2D5B73"></path> <path d="M2666.6 794.584C2667.67 796.279 2669.64 797.217 2671.61 797.042C2672.24 796.983 2672.89 796.945 2673.54 796.945C2684.78 796.945 2693.93 806.094 2693.93 817.342C2693.93 820.289 2696.31 822.671 2699.26 822.671C2702.21 822.671 2704.59 820.289 2704.59 817.342C2704.59 802.225 2693.74 789.603 2679.42 786.848C2681.79 780.827 2683.02 774.411 2683.02 767.931C2683.02 739.296 2659.73 716 2631.11 716C2612.09 716 2594.56 726.667 2585.56 743.138C2578.5 738.682 2570.31 736.279 2561.91 736.279C2539.06 736.279 2520.19 753.609 2517.72 775.823C2515.98 775.562 2514.23 775.433 2512.47 775.433C2492.36 775.433 2476 791.797 2476 811.918C2476 814.865 2478.38 817.247 2481.33 817.247C2484.27 817.247 2486.65 814.865 2486.65 811.918C2486.65 797.675 2498.23 786.091 2512.47 786.091C2515.37 786.091 2518.26 786.597 2521.09 787.598C2522.74 788.19 2524.61 787.912 2526.03 786.864C2527.45 785.808 2528.26 784.114 2528.18 782.345L2528.1 780.762C2528.1 762.113 2543.27 746.937 2561.91 746.937C2570.06 746.937 2577.96 749.916 2584.13 755.325C2585.44 756.475 2587.23 756.912 2588.92 756.486C2590.62 756.065 2591.99 754.844 2592.62 753.219C2598.68 737.329 2614.15 726.656 2631.11 726.656C2653.86 726.656 2672.37 745.173 2672.37 767.931C2672.37 775.317 2670.35 782.606 2666.54 789.006C2665.51 790.732 2665.53 792.885 2666.6 794.584Z" fill="#2D5B73"></path> <path d="M2427.21 281.336C2430.15 281.336 2432.53 278.95 2432.53 276.007C2432.53 254.192 2450.27 236.449 2472.07 236.449C2476.5 236.449 2480.95 237.226 2485.26 238.757C2486.94 239.353 2488.8 239.075 2490.22 238.015C2491.65 236.955 2492.45 235.255 2492.36 233.481L2492.3 232.437L2492.24 231.12C2492.24 202.959 2515.14 180.045 2543.28 180.045C2555.59 180.045 2567.52 184.548 2576.85 192.712C2578.15 193.863 2579.94 194.3 2581.64 193.88C2583.32 193.458 2584.7 192.238 2585.33 190.608C2594.41 166.815 2617.58 150.83 2642.98 150.83C2677.04 150.83 2704.76 178.559 2704.76 212.641C2704.76 223.691 2701.73 234.61 2696.02 244.202C2694.99 245.928 2695.01 248.081 2696.08 249.78C2697.16 251.481 2699.11 252.419 2701.09 252.237C2702.08 252.147 2703.09 252.082 2704.1 252.082C2721.59 252.082 2735.82 266.321 2735.82 283.819C2735.82 286.766 2738.2 289.148 2741.14 289.148C2744.09 289.148 2746.47 286.766 2746.47 283.819C2746.47 262.191 2730.19 244.292 2709.26 241.74C2713.3 232.57 2715.41 222.654 2715.41 212.641C2715.41 172.682 2682.91 140.173 2642.98 140.173C2615.57 140.173 2590.38 156.046 2578.23 180.313C2567.97 173.23 2555.8 169.389 2543.28 169.389C2510.73 169.389 2483.98 194.748 2481.73 226.756C2478.54 226.117 2475.3 225.791 2472.07 225.791C2444.39 225.791 2421.88 248.315 2421.88 276.007C2421.88 278.95 2424.26 281.336 2427.21 281.336Z" fill="#2D5B73"></path> <path d="M1123.31 281.336C1126.25 281.336 1128.63 278.95 1128.63 276.007C1128.63 254.192 1146.37 236.449 1168.17 236.449C1172.61 236.449 1177.04 237.226 1181.37 238.757C1183.04 239.343 1184.89 239.075 1186.32 238.021C1187.74 236.965 1188.54 235.27 1188.47 233.497L1188.4 232.414L1188.34 231.12C1188.34 202.959 1211.23 180.045 1239.38 180.045C1251.7 180.045 1263.61 184.548 1272.94 192.712C1274.25 193.863 1276.04 194.284 1277.73 193.88C1279.42 193.458 1280.8 192.238 1281.42 190.608C1290.52 166.815 1313.69 150.83 1339.08 150.83C1373.14 150.83 1400.85 178.559 1400.85 212.641C1400.85 223.697 1397.83 234.61 1392.12 244.202C1391.09 245.928 1391.12 248.081 1392.19 249.78C1393.26 251.474 1395.21 252.419 1397.19 252.237C1398.18 252.147 1399.19 252.082 1400.2 252.082C1417.69 252.082 1431.92 266.321 1431.92 283.819C1431.92 286.766 1434.31 289.148 1437.25 289.148C1440.19 289.148 1442.57 286.766 1442.57 283.819C1442.57 262.191 1426.3 244.292 1405.35 241.74C1409.39 232.57 1411.5 222.658 1411.5 212.641C1411.5 172.682 1379.02 140.173 1339.08 140.173C1311.68 140.173 1286.48 156.046 1274.34 180.313C1264.08 173.23 1251.9 169.389 1239.38 169.389C1206.83 169.389 1180.08 194.748 1177.84 226.756C1174.64 226.117 1171.4 225.791 1168.17 225.791C1140.5 225.791 1117.98 248.315 1117.98 276.007C1117.98 278.95 1120.37 281.336 1123.31 281.336Z" fill="#2D5B73"></path> <path d="M387.524 389.927C390.466 389.927 392.85 387.539 392.85 384.598C392.85 370.786 404.08 359.549 417.88 359.549C420.684 359.549 423.491 360.044 426.23 361.014C427.899 361.604 429.752 361.334 431.178 360.278C432.603 359.224 433.411 357.529 433.331 355.759L433.248 354.22C433.248 336.114 447.971 321.386 466.065 321.386C473.98 321.386 481.644 324.278 487.638 329.533C488.953 330.678 490.748 331.11 492.431 330.694C494.125 330.273 495.499 329.053 496.122 327.423C502.022 311.991 517.051 301.617 533.528 301.617C555.624 301.617 573.602 319.605 573.602 341.719C573.602 348.891 571.642 355.973 567.936 362.196C566.908 363.917 566.94 366.071 568.006 367.765C569.076 369.465 571.008 370.434 573.005 370.226C573.623 370.173 574.246 370.131 574.885 370.131C585.77 370.131 594.627 378.993 594.627 389.883C594.627 392.83 597.008 395.212 599.953 395.212C602.892 395.212 605.279 392.83 605.279 389.883C605.279 375.139 594.734 362.814 580.796 360.055C583.071 354.214 584.253 347.995 584.253 341.719C584.253 313.734 561.498 290.959 533.528 290.959C514.984 290.959 497.884 301.334 489.071 317.357C482.201 313.051 474.238 310.728 466.065 310.728C443.774 310.728 425.35 327.604 422.879 349.253C421.221 349.013 419.55 348.891 417.88 348.891C398.204 348.891 382.198 364.909 382.198 384.598C382.198 387.539 384.582 389.927 387.524 389.927Z" fill="#2D5B73"></path> <path d="M228.967 964.373C231.91 964.373 234.293 961.991 234.293 959.044C234.293 936.478 252.642 918.117 275.201 918.117C279.8 918.117 284.393 918.916 288.856 920.503C290.525 921.1 292.384 920.813 293.809 919.763C295.234 918.707 296.04 917.008 295.958 915.239L295.892 914.156L295.827 912.788C295.827 883.666 319.5 859.981 348.599 859.981C361.332 859.981 373.657 864.629 383.298 873.074C384.61 874.225 386.404 874.657 388.087 874.235C389.781 873.815 391.16 872.595 391.779 870.964C401.176 846.389 425.114 829.87 451.353 829.87C486.552 829.87 515.188 858.522 515.188 893.738C515.188 905.163 512.061 916.443 506.156 926.353C505.134 928.08 505.16 930.238 506.236 931.933C507.3 933.632 509.207 934.549 511.242 934.384C512.264 934.288 513.298 934.224 514.347 934.224C532.464 934.224 547.205 948.974 547.205 967.101C547.205 970.047 549.591 972.429 552.53 972.429C555.47 972.429 557.856 970.047 557.856 967.101C557.856 944.812 541.032 926.38 519.422 923.865C523.64 914.375 525.839 904.113 525.839 893.738C525.839 852.645 492.422 819.213 451.353 819.213C423.108 819.213 397.144 835.609 384.684 860.659C374.108 853.305 361.53 849.325 348.599 849.325C315.074 849.325 287.542 875.487 285.32 908.482C281.978 907.8 278.592 907.459 275.201 907.459C246.773 907.459 223.642 930.596 223.642 959.044C223.642 961.991 226.028 964.373 228.967 964.373Z" fill="#2D5B73"></path> <path d="M680.602 170.86H722.002C724.943 170.86 727.328 168.478 727.328 165.532C727.328 162.589 724.943 160.203 722.002 160.203H680.602C677.662 160.203 675.277 162.589 675.277 165.532C675.277 168.478 677.662 170.86 680.602 170.86Z" fill="#2D5B73"></path> <path d="M762.342 170.86H868.325C871.269 170.86 873.65 168.478 873.65 165.532C873.65 162.589 871.269 160.203 868.325 160.203H762.342C759.403 160.203 757.018 162.589 757.018 165.532C757.018 168.478 759.403 170.86 762.342 170.86Z" fill="#2D5B73"></path> <path d="M2048.14 122.904C2045.19 122.904 2042.81 125.29 2042.81 128.231C2042.81 131.178 2045.19 133.56 2048.14 133.56H2089.53C2092.48 133.56 2094.86 131.178 2094.86 128.231C2094.86 125.29 2092.48 122.904 2089.53 122.904H2048.14Z" fill="#2D5B73"></path> <path d="M2129.87 122.904C2126.93 122.904 2124.54 125.29 2124.54 128.231C2124.54 131.178 2126.93 133.56 2129.87 133.56H2235.86C2238.81 133.56 2241.19 131.178 2241.19 128.231C2241.19 125.29 2238.81 122.904 2235.86 122.904H2129.87Z" fill="#2D5B73"></path> </g> <defs> <clipPath id="clip0_1130_776"> <rect width="645" height="427" fill="white" transform="scale(4)"></rect> </clipPath> </defs> </svg> 